<svg xmlns="http://www.w3.org/2000/svg" viewBox="0 0 64 64">
  <rect width="64" height="64" rx="14" fill="#050706"/>
  <defs>
    <linearGradient id="g" x1="12" x2="52" y1="10" y2="56" gradientUnits="userSpaceOnUse">
      <stop stop-color="#f7d98a"/>
      <stop offset=".55" stop-color="#d8aa45"/>
      <stop offset="1" stop-color="#a77422"/>
    </linearGradient>
  </defs>
  <path d="M32 55C19 53 9 46 8 35c7 2 13 1 18-4-7-3-11-11-10-20 8 3 13 9 16 18 3-9 8-15 16-18 1 9-3 17-10 20 5 5 11 6 18 4-1 11-11 18-24 20Z" fill="url(#g)"/>
  <path d="M32 48V22m0 0 5-8m-5 8-5-8m-9 27 9-7m19 7-9-7" fill="none" stroke="#050706" stroke-width="3.5" stroke-linecap="round" stroke-linejoin="round" opacity=".72"/>
  <circle cx="32" cy="22" r="3" fill="#050706" opacity=".72"/>
</svg>
