<svg xmlns="http://www.w3.org/2000/svg" viewBox="0 0 64 64">
  <defs>
    <linearGradient id="gold" x1="11" x2="53" y1="8" y2="57" gradientUnits="userSpaceOnUse">
      <stop stop-color="#fff0ae"/>
      <stop offset=".42" stop-color="#e0b44d"/>
      <stop offset=".82" stop-color="#9e7022"/>
    </linearGradient>
  </defs>
  <rect width="64" height="64" rx="14" fill="#050706"/>
  <circle cx="32" cy="32" r="25.5" fill="none" stroke="#d8aa45" stroke-width="1.4" opacity=".74"/>
  <path d="M32 50C22.7 48.7 15.4 43.2 14.1 34.9c5.5 1.2 9.9.3 13.2-2.8-5.6-3.1-8-10-6.4-18.1 6.1 2.1 9.8 7.1 11.1 15 1.4-7.9 5.1-12.9 11.1-15 1.6 8.1-.8 15-6.4 18.1 3.3 3.1 7.8 4 13.2 2.8C48.6 43.2 41.3 48.7 32 50Z" fill="url(#gold)"/>
  <path d="M32 46.8V25.8m0 0 4.2-7m-4.2 7-4.2-7m-8.4 20.6 8.3-6.4m16.9 6.4-8.3-6.4" fill="none" stroke="#07100c" stroke-width="2.5" stroke-linecap="round" stroke-linejoin="round" opacity=".78"/>
  <circle cx="32" cy="25.8" r="2.3" fill="#07100c" opacity=".78"/>
</svg>
