<svg xmlns="http://www.w3.org/2000/svg" viewBox="0 0 560 160" role="img" aria-labelledby="title desc">
  <title id="title">Yellow Lotus Consulting Group logo</title>
  <desc id="desc">Horizontal brand lockup with gold lotus mark and refined wordmark.</desc>
  <defs>
    <linearGradient id="gold" x1="22" x2="126" y1="18" y2="132" gradientUnits="userSpaceOnUse">
      <stop stop-color="#fff0ae"/>
      <stop offset=".42" stop-color="#dfb24d"/>
      <stop offset=".82" stop-color="#9e7022"/>
    </linearGradient>
  </defs>
  <rect width="160" height="160" rx="34" fill="#050706"/>
  <circle cx="80" cy="80" r="64" fill="none" stroke="#d8aa45" stroke-width="2.2" opacity=".74"/>
  <path d="M80 123C57.5 119.8 39.9 106.6 36.7 86.5c13.2 2.8 24 .8 31.9-6.8C55 72.2 49.2 55.6 53 35.9c14.6 5.2 23.7 17.1 27 36.2 3.3-19.1 12.4-31 27-36.2 3.8 19.7-2 36.3-15.6 43.8 7.9 7.6 18.7 9.6 31.9 6.8-3.2 20.1-20.8 33.3-43.3 36.5Z" fill="url(#gold)"/>
  <path d="M80 115.4V63.7m0 0 10.3-17.1M80 63.7 69.7 46.6m-20.4 50.8 20.1-15.7m41.3 15.7L90.6 81.7" fill="none" stroke="#07100c" stroke-width="5.6" stroke-linecap="round" stroke-linejoin="round" opacity=".78"/>
  <circle cx="80" cy="63.7" r="5.6" fill="#07100c" opacity=".78"/>
  <text x="192" y="72" fill="#f6f1e6" font-family="Georgia, 'Times New Roman', serif" font-size="45" font-weight="700" letter-spacing=".5">Yellow Lotus</text>
  <text x="195" y="112" fill="#e0b44d" font-family="Inter, Arial, sans-serif" font-size="17" font-weight="800" letter-spacing="5">CONSULTING GROUP</text>
  <path d="M195 129h272" stroke="#d8aa45" stroke-width="1.4" opacity=".48"/>
</svg>
